<svg xmlns="http://www.w3.org/2000/svg" width="100" height="65.078" viewBox="0 0 80 52.063">
  <defs>
    <style>
      .cls-1 {
        fill: #fff;
        fill-rule: evenodd;
      }
    </style>
  </defs>
  <path id="_" data-name="++" class="cls-1" d="M49.337,26.134a28.144,28.144,0,0,0-11.809-2.59,27.078,27.078,0,0,0-13.46,3.5,24.927,24.927,0,0,0-9.6,9.265,25.706,25.706,0,0,0-3.352,13.173q0,11.455,7.362,18.783T37.393,75.6a28.334,28.334,0,0,0,11.152-2.073,35.114,35.114,0,0,0,10.377-7.433l-6.4-6.674A26.908,26.908,0,0,1,45.053,65a18.033,18.033,0,0,1-7.506,1.535,17.691,17.691,0,0,1-8.752-2.192A15.44,15.44,0,0,1,22.7,58.305a17.7,17.7,0,0,1-2.154-8.8A16.6,16.6,0,0,1,37.378,32.674q8.415,0,15.148,7.116l6.6-6.29A28.249,28.249,0,0,0,49.337,26.134Zm3.431,26.119h5.61v5.61h4.732v-5.61h5.64V47.521h-5.64v-5.64H58.378v5.64h-5.61v4.732Zm19.8,0h5.61v5.61h4.731v-5.61h5.64V47.521h-5.64v-5.64H78.182v5.64h-5.61v4.732Z" transform="translate(-9.844 -23.531)"/>
</svg>
